<mxfile host="app.diagrams.net" modified="2024-04-04T10:09:11.762Z" agent="Mozilla/5.0 (Windows NT 10.0; Win64; x64) AppleWebKit/537.36 (KHTML, like Gecko) Chrome/120.0.0.0 YaBrowser/24.1.0.0 Safari/537.36" etag="XnDpFy6UgHpQMd_U_e6L" version="24.2.2" type="github">
  <diagram name="Страница — 1" id="N2BBvwz7dYq2u03mfkgw">
    <mxGraphModel dx="1509" dy="1993" grid="1" gridSize="10" guides="1" tooltips="1" connect="1" arrows="1" fold="1" page="1" pageScale="1" pageWidth="827" pageHeight="1169" math="0" shadow="0">
      <root>
        <mxCell id="0" />
        <mxCell id="1" parent="0" />
        <mxCell id="JpSsH_3zQxGx-G5elUN2-3" value="" style="edgeStyle=orthogonalEdgeStyle;rounded=0;orthogonalLoop=1;jettySize=auto;html=1;" parent="1" source="JpSsH_3zQxGx-G5elUN2-1" target="JpSsH_3zQxGx-G5elUN2-2" edge="1">
          <mxGeometry relative="1" as="geometry" />
        </mxCell>
        <mxCell id="JpSsH_3zQxGx-G5elUN2-1" value="Интерйфес пользователя" style="rounded=0;whiteSpace=wrap;html=1;" parent="1" vertex="1">
          <mxGeometry x="30" y="40" width="120" height="60" as="geometry" />
        </mxCell>
        <mxCell id="JpSsH_3zQxGx-G5elUN2-5" value="" style="edgeStyle=orthogonalEdgeStyle;rounded=0;orthogonalLoop=1;jettySize=auto;html=1;" parent="1" source="JpSsH_3zQxGx-G5elUN2-2" target="JpSsH_3zQxGx-G5elUN2-4" edge="1">
          <mxGeometry relative="1" as="geometry" />
        </mxCell>
        <mxCell id="JpSsH_3zQxGx-G5elUN2-2" value="&lt;div style=&quot;text-align: left;&quot;&gt;vehicleSocket.emit( &quot;webrtc/offer&quot;)&lt;br&gt;&lt;/div&gt;&lt;div style=&quot;text-align: left;&quot;&gt;&lt;span style=&quot;white-space: normal;&quot;&gt;&lt;br&gt;data = {&lt;/span&gt;&lt;/div&gt;&lt;div style=&quot;text-align: left;&quot;&gt;&lt;span style=&quot;white-space: normal;&quot;&gt;&lt;span style=&quot;white-space: pre;&quot;&gt;&#x9;&lt;/span&gt;streamName: streamNameLOL,&lt;/span&gt;&lt;/div&gt;&lt;div style=&quot;text-align: left;&quot;&gt;&lt;span style=&quot;background-color: initial;&quot;&gt;&lt;span style=&quot;white-space: pre;&quot;&gt;&#x9;&lt;/span&gt;id: vehicleListRState.id,&lt;/span&gt;&lt;/div&gt;&lt;div style=&quot;text-align: left;&quot;&gt;&lt;span style=&quot;white-space: normal;&quot;&gt;&lt;span style=&quot;white-space:pre&quot;&gt;&#x9;&lt;/span&gt;type: &quot;webrtc/offer&quot;,&lt;/span&gt;&lt;/div&gt;&lt;div style=&quot;text-align: left;&quot;&gt;&lt;span style=&quot;white-space: normal;&quot;&gt;&lt;span style=&quot;white-space:pre&quot;&gt;&#x9;&lt;/span&gt;value: await getCompleteOffer(webrtc),&lt;/span&gt;&lt;/div&gt;&lt;div style=&quot;text-align: left;&quot;&gt;&lt;span style=&quot;white-space: normal;&quot;&gt;&lt;span style=&quot;white-space:pre&quot;&gt;&#x9;&lt;/span&gt;clientId: vehicleSocket.id&lt;/span&gt;&lt;/div&gt;&lt;div style=&quot;text-align: left;&quot;&gt;&lt;span style=&quot;white-space: normal;&quot;&gt;}&lt;br&gt;&lt;/span&gt;&lt;/div&gt;" style="whiteSpace=wrap;html=1;rounded=0;" parent="1" vertex="1">
          <mxGeometry x="220" y="40" width="280" height="160" as="geometry" />
        </mxCell>
        <mxCell id="JpSsH_3zQxGx-G5elUN2-7" value="" style="edgeStyle=orthogonalEdgeStyle;rounded=0;orthogonalLoop=1;jettySize=auto;html=1;" parent="1" source="JpSsH_3zQxGx-G5elUN2-4" target="JpSsH_3zQxGx-G5elUN2-6" edge="1">
          <mxGeometry relative="1" as="geometry" />
        </mxCell>
        <mxCell id="JpSsH_3zQxGx-G5elUN2-4" value="Server слушает запрос и делает эмит webrtc&lt;br&gt;&lt;br&gt;&lt;div&gt;на COMMUNICATE&lt;/div&gt;" style="whiteSpace=wrap;html=1;rounded=0;" parent="1" vertex="1">
          <mxGeometry x="660" y="65" width="120" height="110" as="geometry" />
        </mxCell>
        <mxCell id="JpSsH_3zQxGx-G5elUN2-10" value="" style="edgeStyle=orthogonalEdgeStyle;rounded=0;orthogonalLoop=1;jettySize=auto;html=1;" parent="1" source="JpSsH_3zQxGx-G5elUN2-6" target="JpSsH_3zQxGx-G5elUN2-9" edge="1">
          <mxGeometry relative="1" as="geometry" />
        </mxCell>
        <mxCell id="JpSsH_3zQxGx-G5elUN2-6" value="Communicate делает&amp;nbsp;&lt;div&gt;send(data);&lt;/div&gt;&lt;div&gt;&lt;br&gt;&lt;/div&gt;&lt;div&gt;Далее -&amp;gt;&lt;/div&gt;" style="whiteSpace=wrap;html=1;rounded=0;" parent="1" vertex="1">
          <mxGeometry x="660" y="230" width="120" height="90" as="geometry" />
        </mxCell>
        <mxCell id="JpSsH_3zQxGx-G5elUN2-12" value="" style="edgeStyle=orthogonalEdgeStyle;rounded=0;orthogonalLoop=1;jettySize=auto;html=1;" parent="1" source="JpSsH_3zQxGx-G5elUN2-9" target="JpSsH_3zQxGx-G5elUN2-11" edge="1">
          <mxGeometry relative="1" as="geometry" />
        </mxCell>
        <UserObject label="initWebsocketApi(value, socket);" id="JpSsH_3zQxGx-G5elUN2-9">
          <mxCell style="whiteSpace=wrap;html=1;rounded=0;align=left;" parent="1" vertex="1">
            <mxGeometry x="580" y="370" width="210" height="50" as="geometry" />
          </mxCell>
        </UserObject>
        <mxCell id="JpSsH_3zQxGx-G5elUN2-11" value="ws = new WebSocket(`ws://localhost:1984/api/ws?src=${value.streamName}`);" style="whiteSpace=wrap;html=1;align=center;rounded=0;" parent="1" vertex="1">
          <mxGeometry x="50" y="365" width="450" height="60" as="geometry" />
        </mxCell>
        <mxCell id="JpSsH_3zQxGx-G5elUN2-26" value="" style="edgeStyle=orthogonalEdgeStyle;rounded=0;orthogonalLoop=1;jettySize=auto;html=1;" parent="1" source="JpSsH_3zQxGx-G5elUN2-17" target="JpSsH_3zQxGx-G5elUN2-25" edge="1">
          <mxGeometry relative="1" as="geometry" />
        </mxCell>
        <UserObject label="ws.onmessage -&amp;gt;&lt;div&gt;socketIo.emit(data.type, formattedData);&lt;/div&gt;" id="JpSsH_3zQxGx-G5elUN2-17">
          <mxCell style="rounded=0;whiteSpace=wrap;html=1;" parent="1" vertex="1">
            <mxGeometry x="70" y="425" width="302.5" height="60" as="geometry" />
          </mxCell>
        </UserObject>
        <mxCell id="JpSsH_3zQxGx-G5elUN2-21" value="Идет отправка обратно на сервер, наверное" style="rounded=1;whiteSpace=wrap;html=1;" parent="1" vertex="1">
          <mxGeometry x="480" y="470" width="240" height="60" as="geometry" />
        </mxCell>
        <mxCell id="JpSsH_3zQxGx-G5elUN2-22" value="" style="endArrow=classic;html=1;rounded=0;exitX=1;exitY=0.5;exitDx=0;exitDy=0;entryX=0;entryY=0.5;entryDx=0;entryDy=0;" parent="1" source="JpSsH_3zQxGx-G5elUN2-17" target="JpSsH_3zQxGx-G5elUN2-21" edge="1">
          <mxGeometry width="50" height="50" relative="1" as="geometry">
            <mxPoint x="390" y="290" as="sourcePoint" />
            <mxPoint x="440" y="240" as="targetPoint" />
          </mxGeometry>
        </mxCell>
        <mxCell id="JpSsH_3zQxGx-G5elUN2-25" value="&lt;br&gt;&lt;div style=&quot;color: #cccccc;background-color: #1f1f1f;font-family: Consolas, &#39;Courier New&#39;, monospace;font-weight: normal;font-size: 14px;line-height: 19px;white-space: pre;&quot;&gt;&lt;div&gt;&lt;span style=&quot;color: #569cd6;&quot;&gt;const&lt;/span&gt;&lt;span style=&quot;color: #cccccc;&quot;&gt; &lt;/span&gt;&lt;span style=&quot;color: #4fc1ff;&quot;&gt;formattedData&lt;/span&gt;&lt;span style=&quot;color: #cccccc;&quot;&gt; &lt;/span&gt;&lt;span style=&quot;color: #d4d4d4;&quot;&gt;=&lt;/span&gt;&lt;span style=&quot;color: #cccccc;&quot;&gt; {&lt;/span&gt;&lt;/div&gt;&lt;div&gt;&lt;span style=&quot;color: #cccccc;&quot;&gt;&amp;nbsp; &amp;nbsp; &lt;/span&gt;&lt;span style=&quot;color: #9cdcfe;&quot;&gt;streamName&lt;/span&gt;&lt;span style=&quot;color: #9cdcfe;&quot;&gt;:&lt;/span&gt;&lt;span style=&quot;color: #cccccc;&quot;&gt; &lt;/span&gt;&lt;span style=&quot;color: #9cdcfe;&quot;&gt;value&lt;/span&gt;&lt;span style=&quot;color: #cccccc;&quot;&gt;.&lt;/span&gt;&lt;span style=&quot;color: #9cdcfe;&quot;&gt;streamName&lt;/span&gt;&lt;span style=&quot;color: #cccccc;&quot;&gt;,&lt;/span&gt;&lt;/div&gt;&lt;div&gt;&lt;span style=&quot;color: #cccccc;&quot;&gt;&amp;nbsp; &amp;nbsp; &lt;/span&gt;&lt;span style=&quot;color: #9cdcfe;&quot;&gt;type&lt;/span&gt;&lt;span style=&quot;color: #9cdcfe;&quot;&gt;:&lt;/span&gt;&lt;span style=&quot;color: #cccccc;&quot;&gt; &lt;/span&gt;&lt;span style=&quot;color: #4fc1ff;&quot;&gt;data&lt;/span&gt;&lt;span style=&quot;color: #cccccc;&quot;&gt;.&lt;/span&gt;&lt;span style=&quot;color: #9cdcfe;&quot;&gt;type&lt;/span&gt;&lt;span style=&quot;color: #cccccc;&quot;&gt;,&lt;/span&gt;&lt;/div&gt;&lt;div&gt;&lt;span style=&quot;color: #cccccc;&quot;&gt;&amp;nbsp; &amp;nbsp; &lt;/span&gt;&lt;span style=&quot;color: #9cdcfe;&quot;&gt;value&lt;/span&gt;&lt;span style=&quot;color: #9cdcfe;&quot;&gt;:&lt;/span&gt;&lt;span style=&quot;color: #cccccc;&quot;&gt; &lt;/span&gt;&lt;span style=&quot;color: #4fc1ff;&quot;&gt;data&lt;/span&gt;&lt;span style=&quot;color: #cccccc;&quot;&gt;.&lt;/span&gt;&lt;span style=&quot;color: #9cdcfe;&quot;&gt;value&lt;/span&gt;&lt;span style=&quot;color: #cccccc;&quot;&gt;,&lt;/span&gt;&lt;/div&gt;&lt;div&gt;&lt;span style=&quot;color: #cccccc;&quot;&gt;&amp;nbsp; &amp;nbsp; &lt;/span&gt;&lt;span style=&quot;color: #9cdcfe;&quot;&gt;clientId&lt;/span&gt;&lt;span style=&quot;color: #9cdcfe;&quot;&gt;:&lt;/span&gt;&lt;span style=&quot;color: #cccccc;&quot;&gt; &lt;/span&gt;&lt;span style=&quot;color: #9cdcfe;&quot;&gt;value&lt;/span&gt;&lt;span style=&quot;color: #cccccc;&quot;&gt;.&lt;/span&gt;&lt;span style=&quot;color: #9cdcfe;&quot;&gt;clientId&lt;/span&gt;&lt;span style=&quot;color: #cccccc;&quot;&gt;,&lt;/span&gt;&lt;/div&gt;&lt;div&gt;&lt;span style=&quot;color: #cccccc;&quot;&gt;};&lt;/span&gt;&lt;/div&gt;&lt;/div&gt;&lt;div&gt;&lt;br/&gt;&lt;/div&gt;" style="whiteSpace=wrap;html=1;rounded=0;align=left;" parent="1" vertex="1">
          <mxGeometry x="60.01" y="570" width="288.75" height="170" as="geometry" />
        </mxCell>
        <mxCell id="JpSsH_3zQxGx-G5elUN2-27" value="&lt;br style=&quot;font-size: 11px;&quot;&gt;&lt;div style=&quot;color: rgb(204, 204, 204); background-color: rgb(31, 31, 31); font-family: Consolas, &amp;quot;Courier New&amp;quot;, monospace; font-weight: normal; font-size: 11px; line-height: 19px; white-space: pre;&quot;&gt;&lt;div style=&quot;font-size: 11px;&quot;&gt;&lt;span style=&quot;color: rgb(86, 156, 214); font-size: 11px;&quot;&gt;const&lt;/span&gt;&lt;span style=&quot;color: rgb(204, 204, 204); font-size: 11px;&quot;&gt; &lt;/span&gt;&lt;span style=&quot;color: rgb(79, 193, 255); font-size: 11px;&quot;&gt;manager&lt;/span&gt;&lt;span style=&quot;color: rgb(204, 204, 204); font-size: 11px;&quot;&gt; &lt;/span&gt;&lt;span style=&quot;color: rgb(212, 212, 212); font-size: 11px;&quot;&gt;=&lt;/span&gt;&lt;span style=&quot;color: rgb(204, 204, 204); font-size: 11px;&quot;&gt; &lt;/span&gt;&lt;span style=&quot;color: rgb(86, 156, 214); font-size: 11px;&quot;&gt;new&lt;/span&gt;&lt;span style=&quot;color: rgb(204, 204, 204); font-size: 11px;&quot;&gt; &lt;/span&gt;&lt;span style=&quot;color: rgb(78, 201, 176); font-size: 11px;&quot;&gt;Manager&lt;/span&gt;&lt;span style=&quot;color: rgb(204, 204, 204); font-size: 11px;&quot;&gt;(&lt;/span&gt;&lt;span style=&quot;color: rgb(79, 193, 255); font-size: 11px;&quot;&gt;config&lt;/span&gt;&lt;span style=&quot;color: rgb(204, 204, 204); font-size: 11px;&quot;&gt;.&lt;/span&gt;&lt;span style=&quot;color: rgb(156, 220, 254); font-size: 11px;&quot;&gt;apiLink&lt;/span&gt;&lt;span style=&quot;color: rgb(204, 204, 204); font-size: 11px;&quot;&gt;);&lt;/span&gt;&lt;/div&gt;&lt;/div&gt;Сокет сервера (:3006)&lt;div style=&quot;font-size: 11px;&quot;&gt;&lt;br style=&quot;font-size: 11px;&quot;&gt;&lt;/div&gt;&lt;div style=&quot;font-size: 11px;&quot;&gt;&lt;div style=&quot;color: rgb(204, 204, 204); background-color: rgb(31, 31, 31); font-family: Consolas, &amp;quot;Courier New&amp;quot;, monospace; font-size: 11px; line-height: 19px; white-space: pre;&quot;&gt;&lt;span style=&quot;color: rgb(86, 156, 214); font-size: 11px;&quot;&gt;const&lt;/span&gt; &lt;span style=&quot;color: rgb(79, 193, 255); font-size: 11px;&quot;&gt;socket&lt;/span&gt; &lt;span style=&quot;color: rgb(212, 212, 212); font-size: 11px;&quot;&gt;=&lt;/span&gt; &lt;span style=&quot;color: rgb(79, 193, 255); font-size: 11px;&quot;&gt;manager&lt;/span&gt;.&lt;span style=&quot;color: rgb(220, 220, 170); font-size: 11px;&quot;&gt;socket&lt;/span&gt;(&lt;span style=&quot;color: rgb(206, 145, 120); font-size: 11px;&quot;&gt;&quot;/vehicleApi&quot;&lt;/span&gt;, {&lt;/div&gt;&amp;nbsp; &amp;nbsp; &amp;nbsp;&quot;/vehicleApi&quot; - это типо канала, комнаты&lt;br style=&quot;font-size: 11px;&quot;&gt;&lt;/div&gt;" style="rounded=0;whiteSpace=wrap;html=1;fontSize=11;" parent="1" vertex="1">
          <mxGeometry x="250" y="225" width="290" height="100" as="geometry" />
        </mxCell>
        <mxCell id="ZGbc0jheP5GNqV0KJYv2-5" value="" style="endArrow=classic;html=1;rounded=0;exitX=0.138;exitY=0.85;exitDx=0;exitDy=0;exitPerimeter=0;entryX=0.667;entryY=0.4;entryDx=0;entryDy=0;entryPerimeter=0;dashed=1;" parent="1" source="JpSsH_3zQxGx-G5elUN2-27" target="JpSsH_3zQxGx-G5elUN2-9" edge="1">
          <mxGeometry width="50" height="50" relative="1" as="geometry">
            <mxPoint x="390" y="510" as="sourcePoint" />
            <mxPoint x="440" y="460" as="targetPoint" />
            <Array as="points">
              <mxPoint x="310" y="340" />
              <mxPoint x="580" y="340" />
            </Array>
          </mxGeometry>
        </mxCell>
        <mxCell id="eRhAELS6R_RbNOVsheLl-6" value="vehicleSocket.emit( &#39;webrtc/offer&#39;)" style="rounded=0;whiteSpace=wrap;html=1;" vertex="1" parent="1">
          <mxGeometry x="1020" y="-330" width="200" height="50" as="geometry" />
        </mxCell>
        <UserObject label="vehicleSocket.on(&#39;webrtc/candidate&#39;)" id="eRhAELS6R_RbNOVsheLl-7">
          <mxCell style="rounded=0;whiteSpace=wrap;html=1;" vertex="1" parent="1">
            <mxGeometry x="1637.5" y="-380" width="275" height="60" as="geometry" />
          </mxCell>
        </UserObject>
        <UserObject label="socket.on(&#39;webrtc/offer&#39;, VehiclesController.getWebrtcData);" id="eRhAELS6R_RbNOVsheLl-8">
          <mxCell style="rounded=0;whiteSpace=wrap;html=1;" vertex="1" parent="1">
            <mxGeometry x="1637.5" y="-170" width="340" height="60" as="geometry" />
          </mxCell>
        </UserObject>
        <mxCell id="eRhAELS6R_RbNOVsheLl-9" value="vehicleSocket.on(&#39;webrtc/answer&#39;" style="rounded=0;whiteSpace=wrap;html=1;" vertex="1" parent="1">
          <mxGeometry x="1630" y="-290" width="290" height="60" as="geometry" />
        </mxCell>
        <mxCell id="eRhAELS6R_RbNOVsheLl-10" value="Пользователь" style="rounded=1;whiteSpace=wrap;html=1;dashed=1;dashPattern=12 12;" vertex="1" parent="1">
          <mxGeometry x="1060" y="-420" width="120" height="60" as="geometry" />
        </mxCell>
        <mxCell id="eRhAELS6R_RbNOVsheLl-11" value="Сервер&amp;nbsp;" style="rounded=1;whiteSpace=wrap;html=1;dashed=1;dashPattern=12 12;" vertex="1" parent="1">
          <mxGeometry x="1060" y="-250" width="120" height="60" as="geometry" />
        </mxCell>
        <mxCell id="eRhAELS6R_RbNOVsheLl-12" value="" style="endArrow=classic;html=1;rounded=0;exitX=0.5;exitY=1;exitDx=0;exitDy=0;entryX=0.5;entryY=0;entryDx=0;entryDy=0;" edge="1" parent="1" source="eRhAELS6R_RbNOVsheLl-10" target="eRhAELS6R_RbNOVsheLl-6">
          <mxGeometry width="50" height="50" relative="1" as="geometry">
            <mxPoint x="1180" y="100" as="sourcePoint" />
            <mxPoint x="1230" y="50" as="targetPoint" />
          </mxGeometry>
        </mxCell>
        <mxCell id="eRhAELS6R_RbNOVsheLl-14" value="" style="endArrow=classic;html=1;rounded=0;entryX=0.5;entryY=0;entryDx=0;entryDy=0;exitX=0.5;exitY=1;exitDx=0;exitDy=0;" edge="1" parent="1" source="eRhAELS6R_RbNOVsheLl-6" target="eRhAELS6R_RbNOVsheLl-11">
          <mxGeometry width="50" height="50" relative="1" as="geometry">
            <mxPoint x="1395" y="-280" as="sourcePoint" />
            <mxPoint x="1445" y="-330" as="targetPoint" />
          </mxGeometry>
        </mxCell>
        <mxCell id="eRhAELS6R_RbNOVsheLl-15" value="" style="endArrow=classic;html=1;rounded=0;exitX=0.5;exitY=1;exitDx=0;exitDy=0;" edge="1" parent="1" source="eRhAELS6R_RbNOVsheLl-11" target="eRhAELS6R_RbNOVsheLl-16">
          <mxGeometry width="50" height="50" relative="1" as="geometry">
            <mxPoint x="1670" y="-260" as="sourcePoint" />
            <mxPoint x="1620" y="-390" as="targetPoint" />
          </mxGeometry>
        </mxCell>
        <mxCell id="eRhAELS6R_RbNOVsheLl-19" value="" style="edgeStyle=orthogonalEdgeStyle;rounded=0;orthogonalLoop=1;jettySize=auto;html=1;" edge="1" parent="1" source="eRhAELS6R_RbNOVsheLl-16" target="eRhAELS6R_RbNOVsheLl-18">
          <mxGeometry relative="1" as="geometry" />
        </mxCell>
        <mxCell id="eRhAELS6R_RbNOVsheLl-16" value="socket.on(&#39;webrtc/offer&#39;, VehiclesController.getWebrtcData);" style="rounded=0;whiteSpace=wrap;html=1;" vertex="1" parent="1">
          <mxGeometry x="950" y="-160" width="340" height="60" as="geometry" />
        </mxCell>
        <mxCell id="eRhAELS6R_RbNOVsheLl-22" value="" style="edgeStyle=orthogonalEdgeStyle;rounded=0;orthogonalLoop=1;jettySize=auto;html=1;" edge="1" parent="1" source="eRhAELS6R_RbNOVsheLl-18" target="eRhAELS6R_RbNOVsheLl-21">
          <mxGeometry relative="1" as="geometry" />
        </mxCell>
        <mxCell id="eRhAELS6R_RbNOVsheLl-18" value="VehiclesService.getWebrtc(data)" style="whiteSpace=wrap;html=1;rounded=0;" vertex="1" parent="1">
          <mxGeometry x="1020" y="-60" width="200" height="40" as="geometry" />
        </mxCell>
        <UserObject label="io.of(&#39;/vehicleApi&#39;).to(vehicle.socket_id).emit(&#39;webrtc&#39;, data);" id="eRhAELS6R_RbNOVsheLl-21">
          <mxCell style="whiteSpace=wrap;html=1;rounded=0;" vertex="1" parent="1">
            <mxGeometry x="950" y="10" width="340" height="30" as="geometry" />
          </mxCell>
        </UserObject>
      </root>
    </mxGraphModel>
  </diagram>
</mxfile>
